<svg xmlns="http://www.w3.org/2000/svg" style="display:none">

<!-- 🌙 Moon -->
<symbol
  id="icon-moon"
  viewBox="0 0 24 24"
  fill="none"
  stroke="currentColor"
  stroke-width="2"
  stroke-linecap="round"
  stroke-linejoin="round"
>
  <path d="M12 3a9 9 0 1 0 9 9 7 7 0 0 1-9-9z"></path>
</symbol>

<!-- ☀️ Sun -->
<symbol
  id="icon-sun"
  viewBox="0 0 24 24"
  fill="none"
  stroke="currentColor"
  stroke-width="2"
  stroke-linecap="round"
  stroke-linejoin="round"
>
  <circle cx="12" cy="12" r="4"></circle>
  <path d="M12 2v2M12 20v2M4.93 4.93l1.41 1.41M17.66 17.66l1.41 1.41M2 12h2M20 12h2M4.93 19.07l1.41-1.41M17.66 6.34l1.41-1.41"></path>
</symbol>

<!-- hamburger menu -->
<symbol
  id="icon-menu"
  viewBox="0 0 24 24"
  fill="none"
  stroke="currentColor"
  stroke-width="2"
  stroke-linecap="round"
  stroke-linejoin="round"
>
  <line x1="3" y1="6" x2="21" y2="6"></line>
  <line x1="3" y1="12" x2="21" y2="12"></line>
  <line x1="3" y1="18" x2="21" y2="18"></line>
</symbol>

<!-- hamburger menu close -->
<symbol
  id="icon-close"
  viewBox="0 0 24 24"
  fill="none"
  stroke="currentColor"
  stroke-width="2"
  stroke-linecap="round"
  stroke-linejoin="round"
>
  <line x1="18" y1="6" x2="6" y2="18"></line>
  <line x1="6" y1="6" x2="18" y2="18"></line>
</symbol>

<!-- folder open -->
<symbol
  id="icon-folder-open"
  viewBox="0 0 24 24"
  fill="none"
  stroke="currentColor"
  stroke-width="2"
  stroke-linecap="round"
  stroke-linejoin="round"
>
  <path d="M3 7h5l2 3h11v9a2 2 0 0 1-2 2H5a2 2 0 0 1-2-2V7z"></path>
  <path d="M3 7V5a2 2 0 0 1 2-2h5l2 3h7"></path>
</symbol>

<!-- download -->
<symbol
  id="icon-download"
  viewBox="0 0 24 24"
  fill="none"
  stroke="currentColor"
  stroke-width="2"
  stroke-linecap="round"
  stroke-linejoin="round"
>
  <path d="M21 15v4a2 2 0 0 1-2 2H5a2 2 0 0 1-2-2v-4"></path>
  <polyline points="7 10 12 15 17 10"></polyline>
  <line x1="12" y1="15" x2="12" y2="3"></line>
</symbol>


<!-- Graduation Cap -->
<symbol xmlns="http://www.w3.org/2000/svg" 
  id="icon-graduation-cap"
  width="24" height="24" 
  fill="none" 
  stroke="currentColor" 
  stroke-width="2" 
  stroke-linecap="round" 
  stroke-linejoin="round" 
  class="lucide lucide-graduation-cap-icon lucide-graduation-cap"
>
  <path d="M21.42 10.922a1 1 0 0 0-.019-1.838L12.83 5.18a2 2 0 0 0-1.66 0L2.6 9.08a1 1 0 0 0 0 1.832l8.57 3.908a2 2 0 0 0 1.66 0z"/>
  <path d="M22 10v6"/>
  <path d="M6 12.5V16a6 3 0 0 0 12 0v-3.5"/>
</symbol>

<!-- Code Brackets -->
<symbol 
  id="icon-code-brackets"
  xmlns="http://www.w3.org/2000/svg" 
  width="24" height="24" 
  fill="none" 
  stroke="currentColor" 
  stroke-width="2" 
  stroke-linecap="round" 
  stroke-linejoin="round" 
  class="lucide lucide-code-xml-icon lucide-code-xml"
>
  <path d="m18 16 4-4-4-4"/>
  <path d="m6 8-4 4 4 4"/>
  <path d="m14.5 4-5 16"/>
</symbol>

<!-- Rocket -->
<symbol 
  id="icon-rocket"
  xmlns="http://www.w3.org/2000/svg" 
  width="24" 
  height="24" 
  fill="none"
  stroke="currentColor" 
  stroke-width="2" 
  stroke-linecap="round" 
  stroke-linejoin="round" 
  class="lucide lucide-rocket-icon lucide-rocket"
>
  <path d="M4.5 16.5c-1.5 1.26-2 5-2 5s3.74-.5 5-2c.71-.84.7-2.13-.09-2.91a2.18 2.18 0 0 0-2.91-.09z"/>
  <path d="m12 15-3-3a22 22 0 0 1 2-3.95A12.88 12.88 0 0 1 22 2c0 2.72-.78 7.5-6 11a22.35 22.35 0 0 1-4 2z"/>
  <path d="M9 12H4s.55-3.03 2-4c1.62-1.08 5 0 5 0"/>
  <path d="M12 15v5s3.03-.55 4-2c1.08-1.62 0-5 0-5"/>
</symbol>

<!-- Database -->
<symbol 
  id="icon-database"
  xmlns="http://www.w3.org/2000/svg" 
  width="24" height="24" 
  viewBox="0 0 24 24" 
  fill="none" 
  stroke="currentColor" 
  stroke-width="2" 
  stroke-linecap="round" 
  stroke-linejoin="round" 
  class="lucide lucide-database-icon lucide-database"
>
  <ellipse cx="12" cy="5" rx="9" ry="3"/>
  <path d="M3 5V19A9 3 0 0 0 21 19V5"/>
  <path d="M3 12A9 3 0 0 0 21 12"/>
</symbol>

<!-- Palette -->
<symbol 
  id="icon-palette"
  xmlns="http://www.w3.org/2000/svg" 
  width="24" height="24" 
  viewBox="0 0 24 24" 
  fill="none" 
  stroke="currentColor" 
  stroke-width="2" 
  stroke-linecap="round" 
  stroke-linejoin="round" 
  class="lucide lucide-palette-icon lucide-palette"
>
  <path d="M12 22a1 1 0 0 1 0-20 10 9 0 0 1 10 9 5 5 0 0 1-5 5h-2.25a1.75 1.75 0 0 0-1.4 2.8l.3.4a1.75 1.75 0 0 1-1.4 2.8z"/>
  <circle cx="13.5" cy="6.5" r=".5" fill="currentColor"/>
  <circle cx="17.5" cy="10.5" r=".5" fill="currentColor"/>
  <circle cx="6.5" cy="12.5" r=".5" fill="currentColor"/>
  <circle cx="8.5" cy="7.5" r=".5" fill="currentColor"/>
</symbol>

<!-- html -->
<symbol
  id="icon-html" 
  class="w-6 h-6 text-gray-800 dark:text-white" 
  aria-hidden="true" 
  xmlns="http://www.w3.org/2000/svg" 
  width="24" height="24" 
  fill="#E44D26" 
  viewBox="0 0 24 24"
>
  <path d="m3 2 1.578 17.824L12 22l7.467-2.175L21 2H3Zm14.049 6.048H9.075l.172 2.016h7.697l-.626 6.565-4.246 1.381-4.281-1.455-.288-2.932h2.024l.16 1.411 2.4.815 2.346-.763.297-3.005H7.416l-.562-6.05h10.412l-.217 2.017Z"/>
</symbol>

<!-- css -->
<symbol 
  id="icon-css"
  class="w-6 h-6 text-gray-800 dark:text-white" 
  aria-hidden="true" 
  xmlns="http://www.w3.org/2000/svg" 
  width="24" height="24" 
  fill="currentColor" 
  viewBox="0 0 24 24"
>
  <path 
    d="m3 2 1.578 17.834L12 22l7.468-2.165L21 2H3Zm13.3 14.722-4.293 1.204H12l-4.297-1.204-.297-3.167h2.108l.15 1.526 2.335.639 2.34-.64.245-3.05h-7.27l-.187-2.006h7.64l.174-2.006H6.924l-.176-2.006h10.506l-.954 10.71Z"/>
</symbol>

<!-- js -->
<symbol 
  id="icon-js"
  class="w-6 h-6 text-gray-800 dark:text-white" 
  aria-hidden="true"
  xmlns="http://www.w3.org/2000/svg" 
  width="24" height="24" 
  fill="currentColor"
  viewBox="0 0 24 24"
>
  <g transform="scale(0.46)">
    <path d="M45.274,2.325C45.084,2.118,44.817,2,44.536,2H5.464C5.183,2,4.916,2.118,4.726,2.325S4.443,2.81,4.468,3.089l3.52,39.427 c0.037,0.412,0.324,0.759,0.722,0.873l16.01,4.573C24.809,47.987,24.902,48,24.994,48s0.185-0.013,0.274-0.038l16.024-4.573 c0.398-0.114,0.685-0.461,0.722-0.873l3.518-39.427C45.557,2.81,45.463,2.532,45.274,2.325z M12,29.004l7,1.942V11h4v26l-11-3.051 V29.004z M38.054,22L37,34.25L27,37v-4.601l6.75-1.855l0.25-3.75L27,28V11h12l-0.345,4H31v8L38.054,22z"/>
  </g>
</symbol>

<!-- react -->
<symbol 
  id="icon-react" 
  viewBox="0 0 32 32" 
  fill="none" 
  xmlns="http://www.w3.org/2000/svg"
>
  <path 
    d="M18.6789 15.9759C18.6789 14.5415 17.4796 13.3785 16 13.3785C14.5206 13.3785 13.3211 14.5415 13.3211 15.9759C13.3211 17.4105 14.5206 18.5734 16 18.5734C17.4796 18.5734 18.6789 17.4105 18.6789 15.9759Z" 
    fill="#53C1DE"
  />
  <path 
    fill-rule="evenodd" 
    clip-rule="evenodd" 
    d="M24.7004 11.1537C25.2661 8.92478 25.9772 4.79148 23.4704 3.39016C20.9753 1.99495 17.7284 4.66843 16.0139 6.27318C14.3044 4.68442 10.9663 2.02237 8.46163 3.42814C5.96751 4.82803 6.73664 8.8928 7.3149 11.1357C4.98831 11.7764 1 13.1564 1 15.9759C1 18.7874 4.98416 20.2888 7.29698 20.9289C6.71658 23.1842 5.98596 27.1909 8.48327 28.5877C10.9973 29.9932 14.325 27.3945 16.0554 25.7722C17.7809 27.3864 20.9966 30.0021 23.4922 28.6014C25.9956 27.1963 25.3436 23.1184 24.7653 20.8625C27.0073 20.221 31 18.7523 31 15.9759C31 13.1835 26.9903 11.7923 24.7004 11.1537ZM24.4162 19.667C24.0365 18.5016 23.524 17.2623 22.8971 15.9821C23.4955 14.7321 23.9881 13.5088 24.3572 12.3509C26.0359 12.8228 29.7185 13.9013 29.7185 15.9759C29.7185 18.07 26.1846 19.1587 24.4162 19.667ZM22.85 27.526C20.988 28.571 18.2221 26.0696 16.9478 24.8809C17.7932 23.9844 18.638 22.9422 19.4625 21.7849C20.9129 21.6602 22.283 21.4562 23.5256 21.1777C23.9326 22.7734 24.7202 26.4763 22.85 27.526ZM9.12362 27.5111C7.26143 26.47 8.11258 22.8946 8.53957 21.2333C9.76834 21.4969 11.1286 21.6865 12.5824 21.8008C13.4123 22.9332 14.2816 23.9741 15.1576 24.8857C14.0753 25.9008 10.9945 28.557 9.12362 27.5111ZM2.28149 15.9759C2.28149 13.874 5.94207 12.8033 7.65904 12.3326C8.03451 13.5165 8.52695 14.7544 9.12123 16.0062C8.51925 17.2766 8.01977 18.5341 7.64085 19.732C6.00369 19.2776 2.28149 18.0791 2.28149 15.9759ZM9.1037 4.50354C10.9735 3.45416 13.8747 6.00983 15.1159 7.16013C14.2444 8.06754 13.3831 9.1006 12.5603 10.2265C11.1494 10.3533 9.79875 10.5569 8.55709 10.8297C8.09125 9.02071 7.23592 5.55179 9.1037 4.50354ZM20.3793 11.5771C21.3365 11.6942 22.2536 11.85 23.1147 12.0406C22.8562 12.844 22.534 13.6841 22.1545 14.5453C21.6044 13.5333 21.0139 12.5416 20.3793 11.5771ZM16.0143 8.0481C16.6054 8.66897 17.1974 9.3623 17.7798 10.1145C16.5985 10.0603 15.4153 10.0601 14.234 10.1137C14.8169 9.36848 15.414 8.67618 16.0143 8.0481ZM9.8565 14.5444C9.48329 13.6862 9.16398 12.8424 8.90322 12.0275C9.75918 11.8418 10.672 11.69 11.623 11.5748C10.9866 12.5372 10.3971 13.5285 9.8565 14.5444ZM11.6503 20.4657C10.6679 20.3594 9.74126 20.2153 8.88556 20.0347C9.15044 19.2055 9.47678 18.3435 9.85796 17.4668C10.406 18.4933 11.0045 19.4942 11.6503 20.4657ZM16.0498 23.9915C15.4424 23.356 14.8365 22.6531 14.2448 21.8971C15.4328 21.9423 16.6231 21.9424 17.811 21.891C17.2268 22.6608 16.6369 23.3647 16.0498 23.9915ZM22.1667 17.4222C22.5677 18.3084 22.9057 19.1657 23.1742 19.9809C22.3043 20.1734 21.3652 20.3284 20.3757 20.4435C21.015 19.4607 21.6149 18.4536 22.1667 17.4222ZM18.7473 20.5941C16.9301 20.72 15.1016 20.7186 13.2838 20.6044C12.2509 19.1415 11.3314 17.603 10.5377 16.0058C11.3276 14.4119 12.2404 12.8764 13.2684 11.4158C15.0875 11.2825 16.9178 11.2821 18.7369 11.4166C19.7561 12.8771 20.6675 14.4086 21.4757 15.9881C20.6771 17.5812 19.7595 19.1198 18.7473 20.5941ZM22.8303 4.4666C24.7006 5.51254 23.8681 9.22726 23.4595 10.8426C22.2149 10.5641 20.8633 10.3569 19.4483 10.2281C18.6239 9.09004 17.7698 8.05518 16.9124 7.15949C18.1695 5.98441 20.9781 3.43089 22.8303 4.4666Z" 
    fill="#53C1DE"
  />
</symbol>

<!-- vuejs -->
<symbol 
  id="icon-vuejs" 
  viewBox="0 0 32 32" 
  fill="none" 
  xmlns="http://www.w3.org/2000/svg"
>
  <g id="SVGRepo_bgCarrier" stroke-width="0"></g>
  <g id="SVGRepo_tracerCarrier" stroke-linecap="round" stroke-linejoin="round"></g>
  <g id="SVGRepo_iconCarrier"> 
    <path d="M2 4L16 28L30 4H24.5L16 18.5L7.5 4H2Z" fill="#41B883"></path> 
    <path 
      d="M7.5 4L16 18.5L24.5 4H19.5L16.0653 10.0126L12.5 4H7.5Z" 
      fill="#35495E">
    </path> 
  </g>
</symbol>

<!-- php -->
<symbol 
  id="icon-php"
  viewBox="0 -61 256 256" 
  xmlns="http://www.w3.org/2000/svg" 
  preserveAspectRatio="xMinYMin meet" 
  fill="#000000"
>
  <g id="SVGRepo_bgCarrier" stroke-width="0"></g>
  <g id="SVGRepo_tracerCarrier" stroke-linecap="round" stroke-linejoin="round"></g>
  <g id="SVGRepo_iconCarrier"> 
    <g fill-rule="evenodd"> 
      <ellipse fill="#8993BE" cx="128" cy="66.63" rx="128" ry="66.63"></ellipse> 
      <path 
        d="M35.945 106.082l14.028-71.014H82.41c14.027.877 21.041 7.89 21.041 20.165 0 21.041-16.657 33.315-31.562 32.438H56.11l-3.507 18.411H35.945zm23.671-31.561L64 48.219h11.397c6.137 0 10.52 2.63 10.52 7.89-.876 14.905-7.89 17.535-15.78 18.412h-10.52zM100.192 87.671l14.027-71.013h16.658l-3.507 18.41h15.78c14.028.877 19.288 7.89 17.535 16.658l-6.137 35.945h-17.534l6.137-32.438c.876-4.384.876-7.014-5.26-7.014H124.74l-7.89 39.452h-16.658zM153.425 106.082l14.027-71.014h32.438c14.028.877 21.042 7.89 21.042 20.165 0 21.041-16.658 33.315-31.562 32.438h-15.781l-3.507 18.411h-16.657zm23.67-31.561l4.384-26.302h11.398c6.137 0 10.52 2.63 10.52 7.89-.876 14.905-7.89 17.535-15.78 18.412h-10.521z" 
        fill="#232531">
      </path> 
    </g> 
  </g>
</symbol>

<!-- laravel -->
<symbol 
  id="icon-laravel"
  class="w-6 h-6 text-gray-800 dark:text-white" 
  aria-hidden="true" 
  xmlns="http://www.w3.org/2000/svg" 
  width="24" height="24" 
  fill="none" 
  viewBox="0 0 24 24"
>
  <path 
    stroke="#FF2D20" 
    stroke-linejoin="round" 
    d="m17 13 3.4641-2V7L17 5l-3.4641 2v4M17 13l-3.4641-2M17 13v4l-7.00001 4M17 13V9m0 4-7.00001 4m3.53591-6L10.5 12.7348M9.99999 21l-3.4641-2.1318M9.99999 21v-4m-3.4641 2v-.1318m0 0V15L10.5 12.7348m-3.96411 6.1334L3.5 17V5m0 0L7 3l3.5 2m-7 0 2.99999 2M10.5 5v7.7348M10.5 5 6.49999 7M17 9l3.5-2M17 9l-3.5-2M9.99999 17l-3.5-2m0 .5V7"
  />
</symbol>

<!-- mysql -->
<svg 
  id="icon-mysql"
  viewBox="-18.458 -22.75 191.151 191.151" 
  xmlns="http://www.w3.org/2000/svg" 
  fill="#000000"
>
  <g id="SVGRepo_bgCarrier" stroke-width="0"></g>
  <g 
    id="SVGRepo_tracerCarrier" 
    stroke-linecap="round" 
    stroke-linejoin="round" 
    stroke="#CCCCCC" 
    stroke-width="2.6761140000000005">
  </g>
  <g id="SVGRepo_iconCarrier" transform="scale(1.3)">
    <path 
      d="M-18.458 6.58h191.151v132.49H-18.458V6.58z" 
      fill="none">
    </path>
    <path 
      d="M40.054 113.583h-5.175c-.183-8.735-.687-16.947-1.511-24.642h-.046l-7.879 24.642h-3.94l-7.832-24.642h-.045c-.581 7.388-.947 15.602-1.099 24.642H7.81c.304-10.993 1.068-21.299 2.289-30.919h6.414l7.465 22.719h.046l7.511-22.719h6.137c1.344 11.268 2.138 21.575 2.382 30.919M62.497 90.771c-2.107 11.434-4.887 19.742-8.337 24.928-2.688 3.992-5.633 5.99-8.84 5.99-.855 0-1.91-.258-3.16-.77v-2.757c.611.088 1.328.138 2.152.138 1.498 0 2.702-.412 3.62-1.238 1.098-1.006 1.647-2.137 1.647-3.388 0-.858-.428-2.612-1.282-5.268L42.618 90.77h5.084l4.076 13.19c.916 2.995 1.298 5.086 1.145 6.277 2.229-5.953 3.786-12.444 4.673-19.468h4.901v.002z" 
      fill="#5d87a1">
    </path>
    <path 
      d="M131.382 113.583h-14.7V82.664h4.945v27.113h9.755v3.806zM112.834 114.33l-5.684-2.805c.504-.414.986-.862 1.42-1.381 2.416-2.838 3.621-7.035 3.621-12.594 0-10.229-4.014-15.346-12.045-15.346-3.938 0-7.01 1.298-9.207 3.895-2.414 2.84-3.619 7.022-3.619 12.551 0 5.435 1.068 9.422 3.205 11.951 1.955 2.291 4.902 3.438 8.843 3.438 1.47 0 2.819-.18 4.048-.543l7.4 4.308 2.018-3.474zm-18.413-6.934c-1.252-2.014-1.878-5.248-1.878-9.707 0-7.785 2.365-11.682 7.1-11.682 2.475 0 4.289.932 5.449 2.792 1.25 2.017 1.879 5.222 1.879 9.619 0 7.849-2.367 11.774-7.099 11.774-2.476.001-4.29-.928-5.451-2.796M85.165 105.013c0 2.622-.962 4.773-2.884 6.458-1.924 1.678-4.504 2.519-7.737 2.519-3.024 0-5.956-.966-8.794-2.888l1.329-2.655c2.442 1.223 4.653 1.831 6.638 1.831 1.863 0 3.319-.413 4.375-1.232 1.055-.822 1.684-1.975 1.684-3.433 0-1.837-1.281-3.407-3.631-4.722-2.167-1.19-6.501-3.678-6.501-3.678-2.349-1.712-3.525-3.55-3.525-6.578 0-2.506.877-4.529 2.632-6.068 1.757-1.545 4.024-2.315 6.803-2.315 2.87 0 5.479.769 7.829 2.291l-1.192 2.656c-2.01-.854-3.994-1.281-5.951-1.281-1.585 0-2.809.381-3.66 1.146-.858.762-1.387 1.737-1.387 2.933 0 1.828 1.308 3.418 3.722 4.759 2.196 1.192 6.638 3.723 6.638 3.723 2.409 1.709 3.612 3.53 3.612 6.534" 
      fill="#f8981d">
    </path>
    <path 
      d="M137.59 72.308c-2.99-.076-5.305.225-7.248 1.047-.561.224-1.453.224-1.531.933.303.3.338.784.601 1.198.448.747 1.229 1.752 1.942 2.276.783.6 1.569 1.194 2.393 1.717 1.453.899 3.1 1.422 4.516 2.318.825.521 1.645 1.195 2.471 1.756.406.299.666.784 1.193.971v-.114c-.264-.336-.339-.822-.598-1.196l-1.122-1.082c-1.084-1.456-2.431-2.727-3.884-3.771-1.196-.824-3.812-1.944-4.297-3.322l-.076-.076c.822-.077 1.797-.375 2.578-.604 1.271-.335 2.43-.259 3.734-.594.6-.15 1.195-.338 1.797-.523v-.337c-.676-.673-1.158-1.567-1.869-2.203-1.902-1.643-3.998-3.25-6.164-4.595-1.16-.749-2.652-1.231-3.887-1.868-.445-.225-1.195-.336-1.457-.71-.67-.822-1.047-1.904-1.533-2.877-1.08-2.053-2.129-4.331-3.061-6.502-.674-1.456-1.084-2.91-1.906-4.257-3.85-6.35-8.031-10.196-14.457-13.971-1.381-.786-3.024-1.121-4.779-1.533l-2.803-.148c-.598-.262-1.197-.973-1.719-1.309-2.132-1.344-7.621-4.257-9.189-.411-1.01 2.431 1.494 4.821 2.354 6.054.635.856 1.458 1.83 1.902 2.802.263.635.337 1.309.6 1.98.598 1.644 1.157 3.473 1.943 5.007.41.782.857 1.604 1.381 2.312.3.414.822.597.936 1.272-.521.744-.562 1.867-.861 2.801-1.344 4.221-.819 9.45 1.086 12.552.596.934 2.018 2.99 3.92 2.202 1.684-.672 1.311-2.801 1.795-4.668.111-.451.038-.747.262-1.043v.073c.521 1.045 1.047 2.052 1.53 3.1 1.159 1.829 3.177 3.735 4.858 5.002.895.676 1.604 1.832 2.725 2.245V74.1h-.074c-.227-.335-.559-.485-.857-.745-.674-.673-1.42-1.495-1.943-2.241-1.566-2.093-2.952-4.41-4.182-6.801-.602-1.16-1.121-2.428-1.606-3.586-.226-.447-.226-1.121-.601-1.346-.562.821-1.381 1.532-1.791 2.538-.711 1.609-.785 3.588-1.049 5.646l-.147.072c-1.19-.299-1.604-1.53-2.056-2.575-1.119-2.654-1.307-6.914-.336-9.976.26-.783 1.385-3.249.936-3.995-.225-.715-.973-1.122-1.383-1.685-.482-.708-1.01-1.604-1.346-2.39-.896-2.091-1.347-4.408-2.312-6.498-.451-.974-1.234-1.982-1.868-2.879-.712-1.008-1.495-1.718-2.058-2.913-.186-.411-.447-1.083-.148-1.53.073-.3.225-.412.523-.487.484-.409 1.867.111 2.352.336 1.385.56 2.543 1.083 3.699 1.867.523.375 1.084 1.085 1.755 1.272h.786c1.193.26 2.538.072 3.661.41 1.979.636 3.772 1.569 5.38 2.576 4.893 3.103 8.928 7.512 11.652 12.778.447.858.637 1.644 1.045 2.539.787 1.832 1.76 3.7 2.541 5.493.785 1.755 1.533 3.547 2.654 5.005.559.784 2.805 1.195 3.812 1.606.745.335 1.905.633 2.577 1.044 1.271.783 2.537 1.682 3.732 2.543.595.448 2.465 1.382 2.576 2.13M99.484 39.844a5.82 5.82 0 0 0-1.529.188v.075h.072c.301.597.824 1.011 1.197 1.532.301.599.562 1.193.857 1.791l.072-.074c.527-.373.789-.971.789-1.868-.227-.264-.262-.522-.451-.784-.22-.374-.705-.56-1.007-.86" 
      fill="#5d87a1">
    </path>
    <path 
      d="M141.148 113.578h.774v-3.788h-1.161l-.947 2.585-1.029-2.585h-1.118v3.788h.731v-2.882h.041l1.078 2.882h.557l1.074-2.882v2.882zm-6.235 0h.819v-3.146h1.072v-.643h-3.008v.643h1.115l.002 3.146z" 
      fill="#f8981d">
    </path>
  </g>
</svg>

<!-- ps -->
<symbol 
  id="icon-ps"
  xmlns="http://www.w3.org/2000/svg" 
  viewBox="0 0 511.76 498.97"
>
  <defs>
    <style>.a{fill:#001e36;}.b{fill:#31a8ff;}</style>
  </defs>
  <title>adobe-photoshop</title>
  <rect class="a" width="511.76" height="498.97" rx="90.62"/>
  <path class="b" d="M115.24,349.91V130.53c0-1.59.68-2.4,2.06-2.4,3.65,0,7,0,12-.17s10.47-.23,16.31-.34l18.54-.35q9.78-.17,19.39-.17,26.09,0,44,6.52a76.4,76.4,0,0,1,28.66,17.51,67.06,67.06,0,0,1,15.62,24.21A80.31,80.31,0,0,1,276.61,203q0,27.48-12.7,45.32a71.82,71.82,0,0,1-34.33,25.92c-14.42,5.38-30.45,7.2-48.07,7.2-5,0-8.58-.05-10.64-.17s-5.15-.17-9.27-.17v68.49a2.72,2.72,0,0,1-2.32,3.09,2.49,2.49,0,0,1-.77,0H117.64C116,352.65,115.24,351.74,115.24,349.91ZM161.6,169.33v71.55q4.46.35,8.24.34h11.33a80.56,80.56,0,0,0,24.55-3.92A37,37,0,0,0,223.23,226q6.69-7.89,6.69-22a34.74,34.74,0,0,0-5-18.88A32,32,0,0,0,210,172.93,63.68,63.68,0,0,0,185,168.64q-8.25,0-14.59.17t-8.76.52Z"/>
  <path class="b" d="M409.35,227.87a80,80,0,0,0-20.43-7.21,108.28,108.28,0,0,0-23.86-2.75,44.38,44.38,0,0,0-12.87,1.55,11.55,11.55,0,0,0-6.7,4.29,10.79,10.79,0,0,0-1.71,5.84,9.08,9.08,0,0,0,2.06,5.49,23.25,23.25,0,0,0,7.21,5.66,141.8,141.8,0,0,0,15.1,7,150,150,0,0,1,32.79,15.62,50,50,0,0,1,16.82,17.68,47.17,47.17,0,0,1,5,22,49.41,49.41,0,0,1-8.24,28.33,54.23,54.23,0,0,1-23.86,19.05Q375,357.3,352,357.3a140.51,140.51,0,0,1-29-2.75,92.44,92.44,0,0,1-21.8-6.87,4.44,4.44,0,0,1-2.41-4.12V306.49a2,2,0,0,1,.86-1.89,1.66,1.66,0,0,1,1.89.17A91.62,91.62,0,0,0,328,315.24a108.66,108.66,0,0,0,25.07,3.26q12,0,17.68-3.09a9.7,9.7,0,0,0,5.66-8.92q0-4.47-5.15-8.59T350.3,288a126.06,126.06,0,0,1-30.38-15.45,52.42,52.42,0,0,1-16.14-18,47.35,47.35,0,0,1-5-21.8A49.21,49.21,0,0,1,306,206.93a52.37,52.37,0,0,1,22.32-19.57q15.1-7.55,37.76-7.55a167.13,167.13,0,0,1,26.44,1.88,69.58,69.58,0,0,1,18.4,5,3.13,3.13,0,0,1,2.06,1.89,9.31,9.31,0,0,1,.34,2.57v34.68a2.3,2.3,0,0,1-1,2.06A3.33,3.33,0,0,1,409.35,227.87Z"/>
</symbol>

<!-- xd -->
<symbol 
  id="icon-xd"
  viewBox="0 0 32 32" 
  fill="none" 
  xmlns="http://www.w3.org/2000/svg"
>
  <g id="SVGRepo_bgCarrier" stroke-width="0"></g>
  <g id="SVGRepo_tracerCarrier" stroke-linecap="round" stroke-linejoin="round"></g>
  <g id="SVGRepo_iconCarrier"> 
    <path 
      d="M2 12.1333C2 8.58633 2 6.81283 2.69029 5.45806C3.29749 4.26637 4.26637 3.29749 5.45806 2.69029C6.81283 2 8.58633 2 12.1333 2H19.8667C23.4137 2 25.1872 2 26.5419 2.69029C27.7336 3.29749 28.7025 4.26637 29.3097 5.45806C30 6.81283 30 8.58633 30 12.1333V19.8667C30 23.4137 30 25.1872 29.3097 26.5419C28.7025 27.7336 27.7336 28.7025 26.5419 29.3097C25.1872 30 23.4137 30 19.8667 30H12.1333C8.58633 30 6.81283 30 5.45806 29.3097C4.26637 28.7025 3.29749 27.7336 2.69029 26.5419C2 25.1872 2 23.4137 2 19.8667V12.1333Z" 
      fill="#470137">
    </path> 
    <path 
      d="M16.6465 10.2338L13.1528 16.1482L16.8906 22.4285C16.9683 22.5709 16.8906 22.6024 16.778 22.6024H14.1108C13.9229 22.6024 13.7914 22.5956 13.7163 22.4671C13.4656 21.9662 13.2152 21.4685 12.9649 20.974C12.7143 20.4797 12.4482 19.9756 12.1667 19.4617C11.8849 18.9482 11.6063 18.4281 11.3308 17.9013C11.0802 18.4151 10.8015 18.9288 10.5325 19.4425C10.2631 19.9563 9.997 20.4668 9.73421 20.974C9.47126 21.4815 9.20203 21.9856 8.92655 22.4863C8.87636 22.6019 8.78858 22.6138 8.66353 22.6138H6.09026C5.98915 22.6138 5.97695 22.5378 6.03392 22.4478L9.65907 16.3408L6.1278 10.2145C6.06366 10.1271 6.11886 10.034 6.22174 10.0411H8.87015C8.98483 10.0347 9.08618 10.0779 9.15191 10.176C9.37732 10.6898 9.62776 11.2036 9.90323 11.7172C10.1785 12.231 10.4572 12.7384 10.7391 13.2391C11.0209 13.74 11.2995 14.2473 11.5374 14.7611C11.7877 14.2346 12.0413 13.7209 12.2981 13.2199C12.5547 12.719 12.8176 12.2149 13.087 11.7076C13.3562 11.2004 13.616 10.6963 13.8665 10.1953C13.8998 10.0854 13.9794 10.0297 14.0919 10.0411H16.5525C16.6465 10.0411 16.6853 10.1694 16.6465 10.2338Z" 
      fill="#FF61F6">
    </path> 
    <path 
      d="M22.0371 22.8525C20.3806 22.8784 18.6455 22.1963 17.7733 20.6852C17.3475 19.9597 17.1346 19.0511 17.1347 17.9592C17.1276 17.075 17.3479 16.2045 17.7733 15.4355C18.871 13.4733 21.0824 12.7381 23.1829 12.9311V9.13586C23.1829 9.04615 23.2205 9.00101 23.2956 9.00101H25.6623C25.727 8.99153 25.7842 9.05023 25.775 9.11658V20.5022C25.775 20.9719 25.8216 21.44 25.8502 21.9085C25.8548 21.9885 25.8085 22.0677 25.7374 22.1012C24.5681 22.6014 23.3028 22.8467 22.0371 22.8525ZM23.1829 20.4636V15.2043C21.4673 14.7277 19.8017 16.0344 19.8019 17.8436C19.7612 19.7141 21.3736 21.0064 23.1829 20.4636Z" 
      fill="#FF61F6">
    </path> 
  </g>
</symbol>

<!-- icon-ai -->
<symbol 
  id="icon-ai"
  viewBox="0 0 32 32" 
  fill="none" xmlns="http://www.w3.org/2000/svg"
>
  <g id="SVGRepo_bgCarrier" stroke-width="0"></g>
  <g id="SVGRepo_tracerCarrier" stroke-linecap="round" stroke-linejoin="round"></g>
  <g id="SVGRepo_iconCarrier"> 
    <path 
      d="M2 12.1333C2 8.58633 2 6.81283 2.69029 5.45806C3.29749 4.26637 4.26637 3.29749 5.45806 2.69029C6.81283 2 8.58633 2 12.1333 2H19.8667C23.4137 2 25.1872 2 26.5419 2.69029C27.7336 3.29749 28.7025 4.26637 29.3097 5.45806C30 6.81283 30 8.58633 30 12.1333V19.8667C30 23.4137 30 25.1872 29.3097 26.5419C28.7025 27.7336 27.7336 28.7025 26.5419 29.3097C25.1872 30 23.4137 30 19.8667 30H12.1333C8.58633 30 6.81283 30 5.45806 29.3097C4.26637 28.7025 3.29749 27.7336 2.69029 26.5419C2 25.1872 2 23.4137 2 19.8667V12.1333Z" 
      fill="#330000">
    </path> 
    <path 
      d="M15.5686 19.5963H11.2297L10.3469 22.409C10.3224 22.5135 10.2262 22.5875 10.1215 22.5823H7.92384C7.79851 22.5823 7.75469 22.5117 7.79236 22.3704L11.549 11.2738C11.5866 11.1582 11.6242 11.0266 11.6617 10.8789C11.7109 10.6218 11.736 10.3606 11.7369 10.0987C11.7261 10.0213 11.7941 9.95294 11.8683 9.96378H14.8549C14.9424 9.96378 14.9924 9.9959 15.0051 10.0601L19.269 22.3897C19.3065 22.5182 19.269 22.5824 19.1563 22.5823H16.7144C16.6288 22.5921 16.547 22.5334 16.5266 22.4475L15.5686 19.5963ZM11.9059 17.1689H14.8737C14.3861 15.5027 13.8358 13.8584 13.3898 12.1793C12.9086 13.8613 12.3836 15.5365 11.9059 17.1689Z" 
      fill="#FF9A00">
    </path> 
    <path 
      d="M21.8045 12.0058C21.6129 12.0137 21.4219 11.98 21.2438 11.907C21.0658 11.834 20.9048 11.7232 20.7714 11.582C20.6384 11.4346 20.535 11.2618 20.4673 11.0733C20.3996 10.8849 20.3689 10.6846 20.3769 10.4839C20.3701 10.2852 20.4042 10.0873 20.477 9.90305C20.5499 9.71881 20.6598 9.5524 20.7996 9.41468C20.938 9.27839 21.1014 9.17161 21.2804 9.10052C21.4593 9.02942 21.6502 8.99543 21.842 9.00049C22.2929 9.00049 22.6466 9.13856 22.9033 9.41468C23.0329 9.55818 23.1336 9.72648 23.1997 9.90995C23.2657 10.0934 23.2959 10.2885 23.2883 10.4839C23.2962 10.6853 23.2645 10.8864 23.1951 11.075C23.1258 11.2636 23.0201 11.436 22.8845 11.582C22.7428 11.7253 22.5736 11.8369 22.3878 11.9099C22.2019 11.9828 22.0033 12.0155 21.8045 12.0058ZM20.5084 22.3896V13.181C20.5084 13.0654 20.5583 13.0076 20.6587 13.0076H22.9691C23.0691 13.0076 23.1192 13.0654 23.1193 13.181V22.3896C23.1193 22.5182 23.0692 22.5824 22.9691 22.5823H20.6775C20.5648 22.5823 20.5084 22.5181 20.5084 22.3896Z" 
      fill="#FF9A00">
    </path> 
  </g>
</symbol>

<!-- figma -->
<symbol 
  id="icon-figma"
  viewBox="0 0 24 24" 
  xmlns="http://www.w3.org/2000/svg" 
  fill="#000000"
>
  <g id="SVGRepo_bgCarrier" stroke-width="0"></g>
  <g id="SVGRepo_tracerCarrier" stroke-linecap="round" stroke-linejoin="round"></g>
  <g id="SVGRepo_iconCarrier"> 
    <g fill="none" fill-rule="evenodd" transform="translate(4)"> 
      <circle cx="12" cy="12" r="4" fill="#19BCFE"></circle> 
      <path 
        fill="#09CF83" 
        d="M4,24 C6.209139,24 8,22.209139 8,20 C8,19.3969461 8,18.0636128 8,16 C6.20303877,16 4.86970543,16 4,16 C1.790861,16 0,17.790861 0,20 C0,22.209139 1.790861,24 4,24 Z">
      </path> 
      <path 
        fill="#A259FF" 
        d="M4,16 C4.73637967,16 6.069713,16 8,16 L8,8 C6.069713,8 4.73637967,8 4,8 C1.790861,8 0,9.790861 0,12 C0,14.209139 1.790861,16 4,16 Z">
      </path> 
      <path 
        fill="#F24E1E" 
        d="M4,8 C4.73637967,8 6.069713,8 8,8 L8,0 C6.069713,0 4.73637967,0 4,0 C1.790861,0 0,1.790861 0,4 C0,6.209139 1.790861,8 4,8 Z">
      </path> 
      <path 
        fill="#FF7262" 
        d="M12,8 L8,8 L8,8 L8,0 L12,0 L12,0 C14.209139,0 16,1.790861 16,4 C16,6.209139 14.209139,8 12,8 Z">
      </path> 
    </g> 
  </g>
</symbol>

<!-- github -->
<symbol 
  id="icon-github"
  xmlns="http://www.w3.org/2000/svg" 
  width="24" height="24" 
  viewBox="0 0 24 24" 
  fill="none" 
  stroke="currentColor" 
  stroke-width="2" 
  stroke-linecap="round" 
  stroke-linejoin="round" 
  class="lucide lucide-github-icon lucide-github"
>
  <path d="M15 22v-4a4.8 4.8 0 0 0-1-3.5c3 0 6-2 6-5.5.08-1.25-.27-2.48-1-3.5.28-1.15.28-2.35 0-3.5 0 0-1 0-3 1.5-2.64-.5-5.36-.5-8 0C6 2 5 2 5 2c-.3 1.15-.3 2.35 0 3.5A5.403 5.403 0 0 0 4 9c0 3.5 3 5.5 6 5.5-.39.49-.68 1.05-.85 1.65-.17.6-.22 1.23-.15 1.85v4"/>
  <path d="M9 18c-4.51 2-5-2-7-2"/>
</symbol>

<!-- link -->
<symbol 
  id="icon-link"
  xmlns="http://www.w3.org/2000/svg" 
  width="24" height="24" 
  viewBox="0 0 24 24" 
  fill="none" 
  stroke="currentColor" 
  stroke-width="2" 
  stroke-linecap="round" 
  stroke-linejoin="round" 
  class="lucide lucide-external-link-icon lucide-external-link"
>
  <path d="M15 3h6v6"/>
  <path d="M10 14 21 3"/>
  <path d="M18 13v6a2 2 0 0 1-2 2H5a2 2 0 0 1-2-2V8a2 2 0 0 1 2-2h6"/>
</symbol>

<!-- lightbulb -->
<symbol 
  id="icon-lightbulb"
  xmlns="http://www.w3.org/2000/svg" 
  width="24" height="24" 
  viewBox="0 0 24 24" 
  fill="none" 
  stroke="currentColor" 
  stroke-width="2" 
  stroke-linecap="round" 
  stroke-linejoin="round" 
  class="lucide lucide-lightbulb-icon lucide-lightbulb"
>
  <path d="M15 14c.2-1 .7-1.7 1.5-2.5 1-.9 1.5-2.2 1.5-3.5A6 6 0 0 0 6 8c0 1 .2 2.2 1.5 3.5.7.7 1.3 1.5 1.5 2.5"/>
  <path d="M9 18h6"/>
  <path d="M10 22h4"/>
</symbol>

<!-- check-circle -->
<symbol 
  id="icon-check-circle"
  xmlns="http://www.w3.org/2000/svg" 
  width="24" height="24" 
  viewBox="0 0 24 24" 
  fill="none" 
  stroke="currentColor" 
  stroke-width="2" 
  stroke-linecap="round" 
  stroke-linejoin="round" 
  class="lucide lucide-circle-check-big-icon lucide-circle-check-big"
>
  <path d="M21.801 10A10 10 0 1 1 17 3.335"/>
  <path d="m9 11 3 3L22 4"/>
</symbol>

<!-- mail -->
<symbol 
  id="icon-mail"
  xmlns="http://www.w3.org/2000/svg" 
  width="24" height="24" 
  viewBox="0 0 24 24" 
  fill="none" 
  stroke="currentColor" 
  stroke-width="2" 
  stroke-linecap="round" 
  stroke-linejoin="round" 
  class="lucide lucide-mail-icon lucide-mail"
>
  <path d="m22 7-8.991 5.727a2 2 0 0 1-2.009 0L2 7"/>
  <rect x="2" y="4" width="20" height="16" rx="2"/>
</symbol>

<!-- phone -->
<symbol
  id="icon-phone"
  xmlns="http://www.w3.org/2000/svg" 
  width="24" height="24" 
  viewBox="0 0 24 24" 
  fill="none" 
  stroke="currentColor" 
  stroke-width="2" 
  stroke-linecap="round" 
  stroke-linejoin="round" 
  class="lucide lucide-phone-icon lucide-phone"
>
  <path d="M13.832 16.568a1 1 0 0 0 1.213-.303l.355-.465A2 2 0 0 1 17 15h3a2 2 0 0 1 2 2v3a2 2 0 0 1-2 2A18 18 0 0 1 2 4a2 2 0 0 1 2-2h3a2 2 0 0 1 2 2v3a2 2 0 0 1-.8 1.6l-.468.351a1 1 0 0 0-.292 1.233 14 14 0 0 0 6.392 6.384"/>
</symbol>

<!-- location -->
<symbol 
  id="icon-location"
  xmlns="http://www.w3.org/2000/svg" 
  width="24" height="24" 
  viewBox="0 0 24 24" 
  fill="none" 
  stroke="currentColor" 
  stroke-width="2" 
  stroke-linecap="round" 
  stroke-linejoin="round" 
  class="lucide lucide-map-pin-icon lucide-map-pin"
>
  <path d="M20 10c0 4.993-5.539 10.193-7.399 11.799a1 1 0 0 1-1.202 0C9.539 20.193 4 14.993 4 10a8 8 0 0 1 16 0"/>
  <circle cx="12" cy="10" r="3"/>
</symbol>

<!-- send -->
<symbol 
  id="icon-send"
  xmlns="http://www.w3.org/2000/svg" 
  width="24" height="24" 
  viewBox="0 0 24 24" 
  fill="none" 
  stroke="currentColor" 
  stroke-width="2" 
  stroke-linecap="round" 
  stroke-linejoin="round" 
  class="lucide lucide-send-icon lucide-send"
>
  <path d="M14.536 21.686a.5.5 0 0 0 .937-.024l6.5-19a.496.496 0 0 0-.635-.635l-19 6.5a.5.5 0 0 0-.024.937l7.93 3.18a2 2 0 0 1 1.112 1.11z"/>
  <path d="m21.854 2.147-10.94 10.939"/>
</symbol>

<!-- linkedin -->
<symbol 
  id="icon-linkedin"
  xmlns="http://www.w3.org/2000/svg" 
  width="24" height="24" 
  viewBox="0 0 24 24" 
  fill="none" 
  stroke="currentColor" 
  stroke-width="2" 
  stroke-linecap="round" 
  stroke-linejoin="round" 
  class="lucide lucide-linkedin-icon lucide-linkedin"
>
  <path d="M16 8a6 6 0 0 1 6 6v7h-4v-7a2 2 0 0 0-2-2 2 2 0 0 0-2 2v7h-4v-7a6 6 0 0 1 6-6z"/>
  <rect width="4" height="12" x="2" y="9"/>
  <circle cx="4" cy="4" r="2"/>
</sy>

</svg>
